<?xml version="1.0" encoding="utf-8"?>
<svg version="1.1" xmlns:xlink="http://www.w3.org/1999/xlink" width="25px" height="25px" xmlns="http://www.w3.org/2000/svg">
  <g transform="matrix(1 0 0 1 -1037 -364 )">
    <path d="M 11.8421052631579 20.8333333333333  L 23.6842105263158 20.8333333333333  L 23.6842105263158 22.2222222222222  C 23.6842105263158 23.7569444444445  22.5065789473684 25  21.0526315789474 25  L 2.63157894736841 25  C 1.17763157894736 25  0 23.7569444444445  0 22.2222222222222  L 0 2.77777777777777  C 0 1.24305555555555  1.17763157894736 0  2.63157894736841 0  L 21.0526315789474 0  C 22.5065789473684 0  23.6842105263158 1.24305555555555  23.6842105263158 2.77777777777777  L 23.6842105263158 4.16666666666667  L 11.8421052631579 4.16666666666667  C 10.3881578947368 4.16666666666667  9.21052631578946 5.40972222222222  9.21052631578946 6.94444444444444  L 9.21052631578946 18.0555555555556  C 9.21052631578946 19.5902777777778  10.3881578947368 20.8333333333333  11.8421052631579 20.8333333333333  Z M 12 7  L 12 18  L 25 18  L 25 7  L 12 7  Z M 19.0789473684211 12.5  C 19.0789473684211 13.6527777777778  18.1973684210526 14.5833333333333  17.1052631578947 14.5833333333333  C 16.0131578947368 14.5833333333333  15.1315789473684 13.6527777777778  15.1315789473684 12.5  C 15.1315789473684 11.3472222222222  16.0131578947368 10.4166666666667  17.1052631578947 10.4166666666667  C 18.1973684210526 10.4166666666667  19.0789473684211 11.3472222222222  19.0789473684211 12.5  Z " fill-rule="nonzero" fill="#000000" stroke="none" transform="matrix(1 0 0 1 1037 364 )" />
  </g>
</svg>