<?xml version="1.0" encoding="utf-8"?>
<svg version="1.1" xmlns:xlink="http://www.w3.org/1999/xlink" width="25px" height="27px" xmlns="http://www.w3.org/2000/svg">
  <g transform="matrix(1 0 0 1 -1037 -397 )">
    <path d="M 25 5.4  C 25 3.90825  23.7569444444444 2.69999999999999  22.2222222222222 2.69999999999999  L 16.4097222222222 2.69999999999999  C 15.8402777777778 1.134  14.3125 0  12.5 0  C 10.6875 0  9.15972222222223 1.134  8.59027777777779 2.69999999999999  L 2.77777777777778 2.69999999999999  C 1.24305555555556 2.69999999999999  0 3.90825  0 5.4  L 0 24.3  C 0 25.79175  1.24305555555556 27  2.77777777777778 27  L 22.2222222222222 27  C 23.7569444444444 27  25 25.79175  25 24.3  L 25 5.4  Z M 11.1111111111111 4.05000000000001  C 11.1111111111111 3.30075000000001  11.7361111111111 2.69999999999999  12.5 2.69999999999999  C 13.2638888888889 2.69999999999999  13.8888888888889 3.30075000000001  13.8888888888889 4.05000000000001  C 13.8888888888889 4.79924999999999  13.2638888888889 5.4  12.5 5.4  C 11.7361111111111 5.4  11.1111111111111 4.79924999999999  11.1111111111111 4.05000000000001  Z M 15.2777777777778 18.9  L 15.2777777777778 21.6  L 5.55555555555556 21.6  L 5.55555555555556 18.9  L 15.2777777777778 18.9  Z M 19.4444444444444 13  L 19.4444444444444 16  L 5.55555555555556 16  L 5.55555555555556 13  L 19.4444444444444 13  Z M 19.4444444444444 8  L 19.4444444444444 11  L 5.55555555555556 11  L 5.55555555555556 8  L 19.4444444444444 8  Z " fill-rule="nonzero" fill="#000000" stroke="none" transform="matrix(1 0 0 1 1037 397 )" />
  </g>
</svg>