<?xml version="1.0" encoding="utf-8"?>
<svg version="1.1" xmlns:xlink="http://www.w3.org/1999/xlink" width="25px" height="25px" xmlns="http://www.w3.org/2000/svg">
  <g transform="matrix(1 0 0 1 -516 -364 )">
    <path d="M 25 5  C 25 3.61875  23.7569444444444 2.49999999999999  22.2222222222222 2.49999999999999  L 16.4097222222222 2.49999999999999  C 15.8402777777778 1.05  14.3125 0  12.5 0  C 10.6875 0  9.15972222222223 1.05  8.59027777777779 2.49999999999999  L 2.77777777777778 2.49999999999999  C 1.24305555555556 2.49999999999999  0 3.61875  0 5  L 0 22.5  C 0 23.88125  1.24305555555556 25  2.77777777777778 25  L 22.2222222222222 25  C 23.7569444444444 25  25 23.88125  25 22.5  L 25 5  Z M 11.1111111111111 3.75000000000001  C 11.1111111111111 3.05625  11.7361111111111 2.49999999999999  12.5 2.49999999999999  C 13.2638888888889 2.49999999999999  13.8888888888889 3.05625  13.8888888888889 3.75000000000001  C 13.8888888888889 4.44374999999999  13.2638888888889 5  12.5 5  C 11.7361111111111 5  11.1111111111111 4.44374999999999  11.1111111111111 3.75000000000001  Z M 8.33333333333334 11.25  C 8.33333333333334 9.18125000000001  10.2013888888889 7.5  12.5 7.5  C 14.7986111111111 7.5  16.6666666666667 9.18125000000001  16.6666666666667 11.25  C 16.6666666666667 13.325  14.7986111111111 15  12.5 15  C 10.2013888888889 15  8.33333333333334 13.325  8.33333333333334 11.25  Z M 20.8333333333333 20.75  L 20.8333333333333 22.5  L 4.16666666666666 22.5  L 4.16666666666666 20.75  C 4.16666666666666 18.25  9.72222222222222 16.875  12.5 16.875  C 15.2777777777778 16.875  20.8333333333333 18.25  20.8333333333333 20.75  Z " fill-rule="nonzero" fill="#000000" stroke="none" transform="matrix(1 0 0 1 516 364 )" />
  </g>
</svg>