<?xml version="1.0" encoding="utf-8"?>
<svg version="1.1" xmlns:xlink="http://www.w3.org/1999/xlink" width="25px" height="25px" xmlns="http://www.w3.org/2000/svg">
  <g transform="matrix(1 0 0 1 -516 -400 )">
    <path d="M 25 22.3684210526316  L 24.9875 9.21052631578947  C 24.9875 8.26315789473684  24.51875 7.44078947368421  23.8125 6.97368421052632  L 12.5 0  L 1.1875 6.97368421052632  C 0.48125 7.44078947368421  0 8.26315789473684  0 9.21052631578947  L 0 22.3684210526316  C 0 23.8223684210526  1.11875 25  2.5 25  L 22.5 25  C 23.88125 25  25 23.8223684210526  25 22.3684210526316  Z M 22.825 8.99342105263158  L 12.5 15.7894736842105  L 2.175 8.99342105263158  L 12.5 2.63157894736842  L 22.825 8.99342105263158  Z " fill-rule="nonzero" fill="#000000" stroke="none" transform="matrix(1 0 0 1 516 400 )" />
  </g>
</svg>